<?xml version="1.0" encoding="UTF-8"?>
<svg width="120px" height="27px" viewBox="0 0 120 27" version="1.1" xmlns="http://www.w3.org/2000/svg" xmlns:xlink="http://www.w3.org/1999/xlink">
    <!-- Generator: Sketch 44.1 (41455) - http://www.bohemiancoding.com/sketch -->
    <title>Logo_full_black</title>
    <desc>Created with Sketch.</desc>
    <defs>
        <polygon id="path-1" points="0.0151448565 26.3359543 119.980834 26.3359543 119.980834 0.10955757 0.0151448565 0.10955757"></polygon>
    </defs>
    <g id="Page-1" stroke="none" stroke-width="1" fill="none" fill-rule="evenodd">
        <g id="Desktop" transform="translate(-580.000000, -27.000000)">
            <g id="Logo_full_black" transform="translate(580.000000, 27.000000)">
                <mask id="mask-2" fill="white">
                    <use xlink:href="#path-1"></use>
                </mask>
                <g id="Clip-2"></g>
                <path d="M0,3.10685253 L119.980834,3.10685253 L119.980834,0.10955757 L0,0.10955757 L0,3.10685253 Z M0,26.3359543 L119.980834,26.3359543 L119.980834,23.338396 L0,23.338396 L0,26.3359543 Z M112.74235,17.2553173 L112.47151,17.2553173 L112.47151,9.19019463 L113.213608,9.19019463 C115.861938,9.19019463 117.399393,10.6181301 117.399393,13.3280998 C117.399393,16.234009 115.50982,17.2553173 112.74235,17.2553173 Z M119.980329,13.1695573 C119.980329,8.71562073 116.55633,7.06093272 113.500603,7.06093272 L110.058177,7.06093272 L110.058177,19.3848426 L113.348902,19.3848426 C116.588386,19.3848426 119.980329,17.7296278 119.980329,13.1695573 Z M102.811363,9.1975687 L102.811363,7.06778007 L95.2338864,7.06778007 L95.2338864,19.3922166 L102.811363,19.3922166 L102.811363,17.2626914 L97.6492386,17.2626914 L97.6492386,14.1102776 L102.811363,14.1102776 L102.811363,11.9799623 L97.6492386,11.9799623 L97.6492386,9.1975687 L102.811363,9.1975687 Z M83.1684841,12.3491924 L82.2252119,12.3491924 L82.2239499,9.19651526 L83.4898075,9.19651526 C84.5698881,9.19651526 85.2955792,9.84885685 85.2955792,10.8167032 C85.2955792,11.8912101 84.3841112,12.3491924 83.1684841,12.3491924 Z M87.8803013,10.7642946 C87.8803013,8.08777158 85.465454,7.06725335 83.5592214,7.06725335 L79.8141508,7.06725335 L79.8141508,19.3922166 L82.2267264,19.3922166 L82.2267264,14.4792443 L82.6487631,14.4792443 L85.8892575,19.3922166 L88.9265585,19.3922166 C88.1165611,18.246866 86.3610198,15.7304655 85.3155199,14.1982397 C86.6318603,13.7415743 87.8803013,12.6841857 87.8803013,10.7642946 Z M72.8790686,9.1975687 L72.8790686,7.06778007 L65.3018445,7.06778007 L65.3018445,19.3922166 L72.8778065,19.3922166 L72.8778065,17.2626914 L67.714925,17.2626914 L67.714925,14.1102776 L72.8778065,14.1102776 L72.8778065,11.9799623 L67.714925,11.9799623 L67.714925,9.1975687 L72.8790686,9.1975687 Z M56.3249833,19.3908998 L56.3249833,9.19651526 L59.125772,9.19730534 L59.125772,7.06725335 L51.1103568,7.06725335 L51.1103568,9.19651526 L53.9119028,9.19651526 L53.9119028,19.3908998 L56.3249833,19.3908998 Z M41.138226,17.4552072 C39.907454,17.4552072 39.164094,16.874236 38.2023956,15.9055996 L36.5990601,17.5431693 C37.8818295,18.8815625 39.2988832,19.6036943 41.1218191,19.6036943 C43.1805099,19.6036943 45.5938428,18.457817 45.5938428,15.7823474 C45.5938428,13.193523 43.5848776,12.3844825 41.9146523,11.7856029 C41.0039416,11.4508729 39.889785,11.1869867 39.889785,10.2359954 C39.889785,9.42590142 40.6154761,9.00347271 41.4254735,9.00347271 C42.3369414,9.00347271 43.2145858,9.53177196 43.8731347,10.1124797 L45.2561125,8.31636766 C44.0584068,7.36563971 42.8604486,6.85498556 41.3414195,6.85498556 C39.3836944,6.85498556 37.476957,7.96399259 37.476957,10.3057857 C37.476957,12.6654872 39.1976651,13.3697106 40.7338584,13.9675367 C41.9318165,14.4257824 43.0118972,14.830566 43.0118972,15.8871645 C43.0118972,16.9787898 42.0832651,17.4552072 41.138226,17.4552072 Z M25.4466402,10.9057187 L25.4630472,10.9057187 L26.829618,15.0428338 L24.0116651,15.0428338 L25.4466402,10.9057187 Z M27.5048262,17.1017787 L28.2640884,19.3914265 L31.0489751,19.3914265 L26.6110273,7.06593655 L24.6530498,7.06593655 L19.8268888,19.3914265 L22.5100526,19.3914265 L23.3028858,17.1017787 L27.5048262,17.1017787 Z M2.41232322,10.3589843 L5.85651599,19.3914265 L7.57747652,19.3914265 L11.1037039,10.3948012 L11.1037039,19.3914265 L13.5175416,19.3914265 L13.5175416,7.06778007 L10.0236232,7.06778007 L6.7336556,15.6588317 L3.56080817,7.06778007 L0,7.06778007 L0,19.3914265 L2.41232322,19.3914265 L2.41232322,10.3589843 L2.41232322,10.3589843 Z" id="Fill-1" fill="#0A0A08" mask="url(#mask-2)"></path>
            </g>
        </g>
    </g>
</svg>